<?xml version="1.0" encoding="UTF-8"?>
<svg version="1.1" xmlns="http://www.w3.org/2000/svg" viewBox="0 0 359 359" width="100%" height="100%">
<g transform="translate(47, 0)">
<path d="M0 0 C21.57375 -0.0825 43.1475 -0.165 65.375 -0.25 C72.15466309 -0.28641602 78.93432617 -0.32283203 85.91943359 -0.36035156 C94.28051758 -0.37841797 94.28051758 -0.37841797 98.21060181 -0.3817749 C100.92095518 -0.38786629 103.6305282 -0.40028002 106.34072876 -0.42230225 C134.05273864 -0.6372534 155.2631993 3.46223625 179 18 C179.66 18.33 180.32 18.66 181 19 C181.99 19.99 181.99 19.99 183 21 C183.99 21.66 184.98 22.32 186 23 C187.2065625 24.485 187.2065625 24.485 188.4375 26 C190.64785903 28.9852027 190.64785903 28.9852027 192.9609375 29.97265625 C195.29832972 31.15030789 196.51511986 32.43838235 198.1875 34.4375 C198.69667969 35.03433594 199.20585937 35.63117188 199.73046875 36.24609375 C201 38 201 38 202 41 C202.598125 41.5775 203.19625 42.155 203.8125 42.75 C208.14005066 47.20119496 210.39257273 51.77387046 211 58 C211.66 58 212.32 58 213 58 C222.81823815 82.83664986 224.62502935 109.04561521 215.125 134.3125 C214.4389125 135.88489509 213.72937821 137.44721225 213 139 C212.55785156 139.96292969 212.11570313 140.92585937 211.66015625 141.91796875 C203.32953567 159.3526097 203.32953567 159.3526097 198.12890625 161.92578125 C195.00649525 163.50130974 192.92450266 166.04360292 190.5625 168.5625 C185.3231292 174.01454507 179.77656056 178.18544358 173.421875 182.2578125 C172.62265625 182.83273438 171.8234375 183.40765625 171 184 C171 184.66 171 185.32 171 186 C170.3296875 186.09667969 169.659375 186.19335938 168.96875 186.29296875 C165.97883415 187.00504081 163.36570025 188.10796812 160.57545185 189.37966537 C141.01962191 198.16924789 121.07800824 198.58502415 99.93561554 198.40512085 C96.75319807 198.38189697 93.57079742 198.38124483 90.38830566 198.37841797 C81.15462792 198.35764384 71.92105581 198.30179987 62.6875 198.25 C42.000625 198.1675 21.31375 198.085 0 198 C0 132.66 0 67.32 0 0 Z M214 66 C215 69 215 69 215 69 Z M217 77 C218 80 218 80 218 80 Z M218 81 C218 82.65 218 84.3 218 86 C218.33 86 218.66 86 219 86 C219 84.35 219 82.7 219 81 C218.67 81 218.34 81 218 81 Z M219 89 C219 95.6 219 102.2 219 109 C219.33 109 219.66 109 220 109 C220 102.4 220 95.8 220 89 C219.67 89 219.34 89 219 89 Z M218 114 C219 116 219 116 219 116 Z M217 119 C218 121 218 121 218 121 Z M213 132 C214 134 214 134 214 134 Z " fill="#6A3491" transform="translate(40,55)"/>
<path d="M0 0 C5.620425 3.07532689 9.03071001 6.80778951 11.3125 12.8125 C12.0797531 18.73130965 10.57772526 22.96221393 7.3125 27.8125 C3.13096655 31.78495678 -0.68658557 34.09595017 -6.5 34.1875 C-11.45369044 34.0563729 -14.99011873 33.20020213 -18.6875 29.8125 C-21.47092284 26.30143108 -23.6875 23.37226015 -23.6875 18.8125 C-42.4975 18.8125 -61.3075 18.8125 -80.6875 18.8125 C-80.6875 28.7125 -80.6875 38.6125 -80.6875 48.8125 C-104.1175 48.8125 -127.5475 48.8125 -151.6875 48.8125 C-151.6875 43.8125 -151.6875 43.8125 -150.6875 42.8125 C-148.6931827 42.71844858 -146.69550457 42.69506751 -144.69897461 42.69897461 C-143.41772202 42.69905014 -142.13646942 42.69912567 -140.81639099 42.69920349 C-139.40754152 42.70431091 -137.99869244 42.70952691 -136.58984375 42.71484375 C-135.15637766 42.71670798 -133.72291093 42.71813186 -132.28944397 42.71913147 C-128.50990043 42.72295628 -124.7303951 42.73278623 -120.9508667 42.74383545 C-116.41962219 42.7558452 -111.88836493 42.76045199 -107.35710907 42.76628876 C-100.46721278 42.77599802 -93.57740038 42.7951548 -86.6875 42.8125 C-86.6875 33.2425 -86.6875 23.6725 -86.6875 13.8125 C-65.8975 13.8125 -45.1075 13.8125 -23.6875 13.8125 C-23.0275 11.5025 -22.3675 9.1925 -21.6875 6.8125 C-19.8125 4.6328125 -19.8125 4.6328125 -17.6875 2.9375 C-16.98625 2.36257812 -16.285 1.78765625 -15.5625 1.1953125 C-10.6589485 -2.42105673 -5.53755389 -1.78328007 0 0 Z " fill="#F2BC37" transform="translate(191.6875,92.1875)"/>
<path d="M0 0 C4.4012614 2.56809061 7.57722597 5.35226914 9.64453125 10.08984375 C10.38802329 15.72024698 10.44612325 20.42728256 7.95703125 25.58984375 C1.23865298 32.85295539 1.23865298 32.85295539 -3.96484375 33.328125 C-14.50428218 33.57719133 -14.50428218 33.57719133 -19.35546875 29.08984375 C-22.75503979 25.50651211 -23.34602873 24.13704383 -24.35546875 19.08984375 C-62.96546875 19.08984375 -101.57546875 19.08984375 -141.35546875 19.08984375 C-141.35546875 14.08984375 -141.35546875 14.08984375 -140.35546875 13.08984375 C-138.84995701 12.99409066 -137.33995845 12.96796188 -135.83140564 12.96958923 C-134.85398911 12.96821457 -133.87657257 12.9668399 -132.86953735 12.96542358 C-131.78844696 12.96901886 -130.70735657 12.97261414 -129.59350586 12.97631836 C-127.89616554 12.97609932 -127.89616554 12.97609932 -126.16453552 12.97587585 C-122.40394204 12.97657556 -118.64339738 12.98437064 -114.8828125 12.9921875 C-112.28349332 12.99405148 -109.68417378 12.99547547 -107.08485413 12.99647522 C-100.92958298 12.99991034 -94.77433215 13.00780119 -88.61906868 13.01782471 C-81.61313529 13.02898681 -74.60720108 13.03449654 -67.60126102 13.03952014 C-53.18598742 13.04998383 -38.77072871 13.06758267 -24.35546875 13.08984375 C-24.21665283 12.30504639 -24.07783691 11.52024902 -23.93481445 10.71166992 C-23.2991108 7.83479612 -22.47796904 6.58228079 -20.54296875 4.40234375 C-20.04152344 3.82097656 -19.54007812 3.23960937 -19.0234375 2.640625 C-13.89067808 -2.13151901 -6.3975267 -2.47201281 0 0 Z " fill="#DAA440" transform="translate(181.35546875,142.91015625)"/>
<path d="M0 0 C6.93 0 13.86 0 21 0 C21 9.9 21 19.8 21 30 C39.81 30 58.62 30 78 30 C78.66 27.69 79.32 25.38 80 23 C82.47716188 19.2415475 84.8057261 16.69555753 89 15 C95.20457915 14.30743994 100.7833051 14.23912693 106 18 C110.68514711 22.57464836 112.76252445 25.79408001 113.25 32.375 C112.82158883 38.58696195 110.47324026 41.77066975 105.9375 45.8125 C101.41931398 49.62393067 98.58092988 50.47456277 92.671875 50.40625 C88.07196148 49.70684794 85.14112998 47.32207065 82 44 C79.97606653 41.23853145 78 38.53435895 78 35 C57.54 35 37.08 35 16 35 C16 25.1 16 15.2 16 5 C10.72 5 5.44 5 0 5 C0 3.35 0 1.7 0 0 Z " fill="#F5BF34" transform="translate(41,175)"/>
<path d="M0 0 C15.35073083 -0.04667745 30.70145838 -0.08196793 46.05224419 -0.10362434 C53.17954757 -0.11394612 60.30680691 -0.12802361 67.43408203 -0.15087891 C74.30698186 -0.17290803 81.17983581 -0.18455525 88.05276871 -0.18975449 C90.68032681 -0.19346163 93.3078823 -0.20070029 95.93542099 -0.21146011 C99.60397597 -0.225891 103.27233936 -0.22798147 106.94091797 -0.22705078 C108.03711456 -0.23424133 109.13331116 -0.24143188 110.26272583 -0.24884033 C111.75615509 -0.24471634 111.75615509 -0.24471634 113.27975464 -0.24050903 C114.14808363 -0.24235262 115.01641262 -0.24419621 115.91105461 -0.24609566 C118 0 118 0 120 2 C120.99 2.33 121.98 2.66 123 3 C122.34 4.32 121.68 5.64 121 7 C120.01 7 119.02 7 118 7 C118 6.34 118 5.68 118 5 C79.06 5 40.12 5 0 5 C0 3.35 0 1.7 0 0 Z " fill="#F5BE37" transform="translate(40,157)"/>
<path d="M0 0 C5.32273339 1.81221468 8.31142646 5.13988629 11 10 C12.70108067 15.10324201 12.56521247 19.31873434 10.3125 24.1875 C7.6709523 29.01322494 4.01860381 31.84264026 -1 34 C-6.56109258 34.80109541 -11.69981811 34.55791054 -16.4609375 31.41015625 C-19.34443831 28.76816693 -21.41296352 25.56169016 -23 22 C-23 21.01 -23 20.02 -23 19 C-22.34 19 -21.68 19 -21 19 C-21 19.99 -21 20.98 -21 22 C-20.01 21.34 -19.02 20.68 -18 20 C-17.26393501 16.43230448 -17.26393501 16.43230448 -17 13 C-16.67 13 -16.34 13 -16 13 C-15.91363281 13.60328125 -15.82726562 14.2065625 -15.73828125 14.828125 C-15.0242854 18.88938578 -14.51871504 21.4092412 -11.75 24.5625 C-8.43277554 26.29650369 -6.69301395 26.61550232 -3 26 C-0.30009338 24.20006226 1.5418865 22.916227 3 20 C3.34553283 16.98892823 3.57248153 14.90687223 3 12 C0.37232409 8.84678891 -1.11184321 7.2605521 -5.1796875 6.69921875 C-7.61686026 6.65283726 -7.61686026 6.65283726 -11 7 C-11.33 6.01 -11.66 5.02 -12 4 C-11.34 3.67 -10.68 3.34 -10 3 C-10.33 2.34 -10.66 1.68 -11 1 C-7.51489167 -0.74255416 -3.81045929 -0.44351248 0 0 Z " fill="#F4BE34" transform="translate(191,92)"/>
<path d="M0 0 C4.35075505 1.69115728 7.26741362 4.24909896 10.5 7.5625 C12.74392156 12.70482023 12.75106183 17.47704029 12 23 C9.58064724 28.01791684 6.0008269 31.49958655 1 34 C-0.93359586 34.14851844 -2.87342097 34.22130833 -4.8125 34.25 C-5.85019531 34.27578125 -6.88789063 34.3015625 -7.95703125 34.328125 C-11.36151636 33.96101749 -13.22392285 32.9499248 -16 31 C-12.93652871 29.46826436 -10.31441515 30.47667129 -7 31 C-3.47190093 31 -2.53184488 30.35723489 0 28 C0 27.01 0 26.02 0 25 C1.4375 23.4375 1.4375 23.4375 3 22 C4.54586876 18.90826248 4.29359521 16.40570448 4 13 C2.13291495 10.63502561 0.67938569 9.33969285 -2 8 C-6.3650317 7.75749824 -9.18752042 7.88195579 -13 10 C-13.66 9.67 -14.32 9.34 -15 9 C-15.625 5.9375 -15.625 5.9375 -16 3 C-11.22135713 -0.95473892 -5.88750725 -0.8740557 0 0 Z " fill="#F3BE37" transform="translate(179,142)"/>
<path d="M0 0 C0.33 0 0.66 0 1 0 C1.80566727 12.6892595 -1.69651645 25.51852232 -7 37 C-7.66 36.67 -8.32 36.34 -9 36 C-9.1875 32.625 -9.1875 32.625 -9 29 C-8.01 28.34 -7.02 27.68 -6 27 C-5.23568292 24.38535556 -5.23568292 24.38535556 -4.875 21.4375 C-4.08091603 16.08091603 -4.08091603 16.08091603 -3 15 C-2.95919217 13.00041636 -2.95745644 10.99954746 -3 9 C-2.34 8.67 -1.68 8.34 -1 8 C-0.53476937 6.10466658 -0.53476937 6.10466658 -0.375 3.9375 C-0.25125 2.638125 -0.1275 1.33875 0 0 Z M-2 12 C-1 14 -1 14 -1 14 Z M-3 17 C-2 19 -2 19 -2 19 Z M-7 30 C-6 32 -6 32 -6 32 Z " fill="#312C47" transform="translate(260,157)"/>
<path d="M0 0 C7.75 -0.125 7.75 -0.125 10 1 C10 2.65 10 4.3 10 6 C11.88316159 7.10836423 11.88316159 7.10836423 14 8 C14.66 7.67 15.32 7.34 16 7 C16.16682272 11.92127034 16.24828052 15.50343896 14 20 C13.34 20 12.68 20 12 20 C11.97421875 19.41992188 11.9484375 18.83984375 11.921875 18.2421875 C11.52589538 12.78846817 10.73870272 9.23063728 7 5 C4.72595355 3.43354311 2.48191811 2.24095906 0 1 C0 0.67 0 0.34 0 0 Z " fill="#743D86" transform="translate(179,142)"/>
<path d="M0 0 C0.33 0.66 0.66 1.32 1 2 C-0.32 3.65 -1.64 5.3 -3 7 C-4.32 6.67 -5.64 6.34 -7 6 C-4.69 4.02 -2.38 2.04 0 0 Z " fill="#834B76" transform="translate(151,216)"/>
<path d="M0 0 C0.33 1.32 0.66 2.64 1 4 C-1.70879335 5.35439668 -4.00933268 5.06501451 -7 5 C-4.702779 3.25728062 -2.40133271 1.60088848 0 0 Z " fill="#753E7F" transform="translate(197,121)"/>
<path d="M0 0 C1.32 0 2.64 0 4 0 C4 0.66 4 1.32 4 2 C4.66 2 5.32 2 6 2 C6 2.99 6 3.98 6 5 C3.5625 4.1875 3.5625 4.1875 1 3 C0.67 2.01 0.34 1.02 0 0 Z " fill="#EFBA3D" transform="translate(172,119)"/>
<path d="M0 0 C0.66 0.33 1.32 0.66 2 1 C1.34 2.98 0.68 4.96 0 7 C-0.99 7 -1.98 7 -3 7 C-1.125 1.125 -1.125 1.125 0 0 Z " fill="#2B1833" transform="translate(250,193)"/>
<path d="M0 0 C3.25 0.8125 3.25 0.8125 6 2 C6 2.33 6 2.66 6 3 C2.7 3 -0.6 3 -4 3 C-2.68 2.01 -1.36 1.02 0 0 Z " fill="#FDC426" transform="translate(189,119)"/>
<path d="M0 0 C0 0.99 0 1.98 0 3 C-1.98 3.99 -1.98 3.99 -4 5 C-2.68 3.35 -1.36 1.7 0 0 Z " fill="#2C1E3A" transform="translate(232,222)"/>
<path d="M0 0 C1.15941038 3.47823115 0.70820884 5.45895578 0 9 C-0.66 9 -1.32 9 -2 9 C-2 9.66 -2 10.32 -2 11 C-2.99 10.67 -3.98 10.34 -5 10 C-3.35 6.7 -1.7 3.4 0 0 Z " fill="#783D81" transform="translate(203,110)"/>
<path d="M0 0 C4.75 1.875 4.75 1.875 7 3 C7.33 3.99 7.66 4.98 8 6 C5.69 5.67 3.38 5.34 1 5 C0.67 3.35 0.34 1.7 0 0 Z " fill="#3B2152" transform="translate(214,71)"/>
<path d="M0 0 C0.66 0.33 1.32 0.66 2 1 C2 3.64 2 6.28 2 9 C1.34 9 0.68 9 0 9 C-0.66 7.02 -1.32 5.04 -2 3 C-1.34 3 -0.68 3 0 3 C0 2.01 0 1.02 0 0 Z " fill="#FCC627" transform="translate(184,163)"/>
<path d="M0 0 C3.3 0.33 6.6 0.66 10 1 C9.01 2.485 9.01 2.485 8 4 C5.33333333 3.33333333 2.66666667 2.66666667 0 2 C0 1.34 0 0.68 0 0 Z " fill="#F3BE3C" transform="translate(168,168)"/>
<path d="M0 0 C0.33 0.66 0.66 1.32 1 2 C-0.32 3.65 -1.64 5.3 -3 7 C-4.32 6.67 -5.64 6.34 -7 6 C-4.69 4.02 -2.38 2.04 0 0 Z " fill="#834B76" transform="translate(151,216)"/>
<path d="M0 0 C0.66 0 1.32 0 2 0 C2 0.66 2 1.32 2 2 C2.99 2 3.98 2 5 2 C4.67 3.65 4.34 5.3 4 7 C3.01 7.33 2.02 7.66 1 8 C0.67 6.35 0.34 4.7 0 3 C-0.99 2.67 -1.98 2.34 -3 2 C-2.01 2 -1.02 2 0 2 C0 1.34 0 0.68 0 0 Z" fill="#F8C135" transform="translate(119,206)"/>
<path d="M0 0 C3.51005335 1.6380249 6.45543849 3.03134491 9 6 C8.67 6.66 8.34 7.32 8 8 C5.33333333 6.66666667 2.66666667 5.33333333 0 4 C0 2.68 0 1.36 0 0 Z" fill="#362747" transform="translate(228,82)"/>
<path d="M0 0 C0.33 0 0.66 0 1 0 C1.20496094 0.62648437 1.40992188 1.25296875 1.62109375 1.8984375 C1.89050781 2.71570313 2.15992188 3.53296875 2.4375 4.375 C2.83775391 5.59316406 2.83775391 5.59316406 3.24609375 6.8359375 C3.95179729 9.01031799 3.95179729 9.01031799 5 11 C3.35 11 1.7 11 0 11 C0.33 11.99 0.66 12.98 1 14 C0.01 14 -0.98 14 -2 14 C-4.25 11.1875 -4.25 11.1875 -6 8 C-5.67 7.01 -5.34 6.02 -5 5 C-4.01 5.33 -3.02 5.66 -2 6 C-1.34 4.02 -0.68 2.04 0 0 Z" fill="#F2BD3A" transform="translate(163,157)"/>
<path d="M0 0 C0.5534764 2.07553648 1 3.84365964 1 6 C-0.41433206 6.2236337 -1.83167618 6.42826476 -3.25 6.625 C-4.03890625 6.74101562 -4.8278125 6.85703125 -5.640625 6.9765625 C-8.32152459 7.00319395 -9.72694089 6.36592084 -12 5 C-10.21825212 2.69857565 -8.83695835 1.19965609 -5.953125 0.51171875 C-3.9753389 0.27676898 -1.98728128 0.13248542 0 0 Z" fill="#FDC628" transform="translate(141,217)"/>
<path d="M0 0 C2.9375 2 2.9375 2 5 4 C-7.04929577 5.63380282 -7.04929577 5.63380282 -11 3 C-7.48746814 -0.37203058 -4.76261263 -0.58488225 0 0 Z" fill="#733D86" transform="translate(177,149)"/>
<path d="M0 0 C1 3 1 3 1 5 C1.66 5 2.32 5 3 5 C3.33 6.65 3.66 8.3 4 10 C2.68 10.33 1.36 10.66 0 11 C0 11.66 0 12.32 0 13 C-2.475 12.01 -2.475 12.01 -5 11 C-3.35 7.37 -1.7 3.74 0 0 Z" fill="#6A3691" transform="translate(203,110)"/>
<path d="M0 0 C1.98 0 3.96 0 6 0 C6.33 0.99 6.66 1.98 7 3 C7.66 3.33 8.32 3.66 9 4 C5.1496895 6.56687367 3.41430237 5.83288724 -1 5 C-0.67 3.35 -0.34 1.7 0 0 Z" fill="#FCC52A" transform="translate(175,143)"/>
<path d="M0 0 C0.99 0 1.98 0 3 0 C3.8655047 2.26708325 4.71759315 4.53775079 5.5625 6.8125 C5.80935547 7.45509766 6.05621094 8.09769531 6.31054688 8.75976562 C8.11328125 13.66015625 8.11328125 13.66015625 7 17 C6.34 17 5.68 17 5 17 C4.87625 15.88625 4.7525 14.7725 4.625 13.625 C4.3534187 9.96896323 4.3534187 9.96896323 2 8 C2 6.68 2 5.36 2 4 C1.34 4 0.68 4 0 4 C0 2.68 0 1.36 0 0 Z" fill="#2C1739" transform="translate(250,113)"/>
<path d="M0 0 C3.76636565 1.34513059 4.81861249 3.46367787 6.625 6.9375 C6.295 7.9275 5.965 8.9175 5.625 9.9375 C4.965 8.9475 4.305 7.9575 3.625 6.9375 C3.00625 6.81375 2.3875 6.69 1.75 6.5625 C-1.38589273 5.64017861 -2.51869669 3.52306532 -4.375 0.9375 C-2.375 -0.0625 -2.375 -0.0625 0 0 Z" fill="#713B87" transform="translate(199.375,93.0625)"/>
<path d="M0 0 C0.33 0 0.66 0 1 0 C1.08096803 1.45742463 1.13917774 2.91612807 1.1875 4.375 C1.22230469 5.18710938 1.25710937 5.99921875 1.29296875 6.8359375 C1.19628906 7.55007812 1.09960938 8.26421875 1 9 C0.01 9.66 -0.98 10.32 -2 11 C-4 9 -4 9 -4.125 5.875 C-4.08375 4.92625 -4.0425 3.9775 -4 3 C-3.01 2.67 -2.02 2.34 -1 2 C-0.67 1.34 -0.34 0.68 0 0 Z" fill="#FCC528" transform="translate(189,153)"/>
<path d="M0 0 C0.66 0.33 1.32 0.66 2 1 C1.04882866 2.1725131 0.08882991 3.33787015 -0.875 4.5 C-1.40867187 5.1496875 -1.94234375 5.799375 -2.4921875 6.46875 C-2.98976563 6.9740625 -3.48734375 7.479375 -4 8 C-4.66 8 -5.32 8 -6 8 C-5.67 8.99 -5.34 9.98 -5 11 C-5.99 11 -6.98 11 -8 11 C-7.42429187 7.11397015 -5.58424279 4.88827136 -3 2 C-2.01 1.34 -1.02 0.68 0 0 Z" fill="#E8B342" transform="translate(128,191)"/>
<path d="M0 0 C1.0625 1.8125 1.0625 1.8125 2 4 C1.67 4.99 1.34 5.98 1 7 C0.34 6.67 -0.32 6.34 -1 6 C-1.33 6.66 -1.66 7.32 -2 8 C-1.34 8 -0.68 8 0 8 C-0.33 9.65 -0.66 11.3 -1 13 C-3.32579101 9.51131349 -3.41865457 8.10281481 -3 4 C-1.5 1.625 -1.5 1.625 0 0 Z" fill="#784080" transform="translate(178,101)"/>
</g>
</svg>
